<?xml version="1.0" encoding="utf-8"?>
<!-- Generator: Adobe Illustrator 18.0.0, SVG Export Plug-In . SVG Version: 6.00 Build 0)  -->
<!DOCTYPE svg PUBLIC "-//W3C//DTD SVG 1.1//EN" "http://www.w3.org/Graphics/SVG/1.1/DTD/svg11.dtd">
<svg version="1.1" id="Logos" xmlns="http://www.w3.org/2000/svg" xmlns:xlink="http://www.w3.org/1999/xlink" x="0px" y="0px"
	 width="172.7828827px" height="172.7828827px" viewBox="0 0 172.7828827 172.7828827"
	 enable-background="new 0 0 172.7828827 172.7828827" xml:space="preserve">
<g>
	<g>
		
			<linearGradient id="SVGID_1_" gradientUnits="userSpaceOnUse" x1="146.0594177" y1="145.3734894" x2="23.1792068" y2="23.9058762">
			<stop  offset="0" style="stop-color:#FF4575"/>
			<stop  offset="1" style="stop-color:#FF8624"/>
		</linearGradient>
		<circle fill="url(#SVGID_1_)" cx="86.3914566" cy="86.3913651" r="86.3914413"/>
		<g>
			<path fill="#FFFFFF" d="M31.5112133,47.5198784h-4.4850578c-3.4059029,0-6.320179,2.4453697-6.9116001,5.7995338
				l-8.5391951,48.4287415c-0.1579704,0.8959122,0.5312347,1.7172775,1.4409637,1.7172775h9.0761385
				c0.7500954,0,1.3919182-0.538559,1.5221691-1.2772598l9.3367538-52.9519691
				C33.1092682,48.340786,32.4204407,47.5198784,31.5112133,47.5198784z"/>
			<path fill="#FFFFFF" d="M120.2110443,89.1813354h-13.2123871h-3.9106674c-2.1386261,0-3.9685516,1.5354919-4.33992,3.6416321
				l-5.3613968,30.4063416c-0.0994949,0.5642853,0.3346024,1.0816193,0.9075928,1.0816193h5.7368622
				c0.4472427,0,0.8299255-0.321106,0.9075928-0.7615585l2.0334396-11.5320435
				c0.0776596-0.4404449,0.4603424-0.7615509,0.9075851-0.7615509h13.1887589c2.1386261,0,3.9685593-1.5354767,4.3399506-3.6416092
				l0.4539032-2.5739975c0.0995102-0.5642929-0.3345871-1.0816345-0.9075851-1.0816345h-3.3493118h-8.745018
				c-0.4000626,0-0.7781677-0.0793839-1.1396027-0.1955185c-1.5080109-0.4845123-2.6067734-1.8819122-2.6067734-3.5508652
				c0-1.653801,1.0786819-3.0412903,2.5654221-3.5380554c0.3733444-0.1247253,0.7655792-0.2083206,1.180954-0.2083206h13.9768066
				c2.138649,0,3.9685974-1.5355148,4.3399658-3.6416779l0.4515839-2.561142
				c0.0995026-0.5642853-0.3345947-1.0816193-0.9075851-1.0816193H120.2110443z"/>
			<path fill="#FFFFFF" d="M128.7086792,58.0906906c-2.6815262-6.1448746-8.7852173-10.5708122-16.093483-10.5708122h-12.2415237
				h-0.0165253h-6.2114182c-3.4058914,0-6.3201675,2.4453621-6.9115982,5.7995148l-8.5383682,48.4233742
				c-0.1584702,0.8987198,0.5328979,1.7226639,1.4454803,1.7226639h9.1361542c0.6804733,0,1.2549896-0.4730301,1.4137955-1.1263351
				l2.8324738-16.0638885c0.3715515-2.1072006,2.2030716-3.643013,4.3427811-3.6416245l14.7370911,0.0095825
				c3.3213501,0.0021744,6.4497528-0.9346008,9.1272125-2.5637741c4.1955872-2.5529327,7.2738571-6.819931,8.1784439-11.9451141
				v-0.000061C130.5370941,64.577301,130.0338593,61.127697,128.7086792,58.0906906z M96.4399033,69.7350769l1.7095261-9.6952591
				c0.0942841-0.5347061,0.5495529-0.924469,1.0925064-0.924263c3.1030807,0.0011902,12.9119949,0.0049629,12.9277344,0.0051308
				c3.2693176,0.0299454,5.9118195,2.6843719,5.9118195,5.960804v0.0000687c0,3.2950516-2.6711655,5.966217-5.966217,5.966217
				H97.5413895C96.8459854,71.0477753,96.3191452,70.4199219,96.4399033,69.7350769z"/>
			<path fill="#FFFFFF" d="M152.219574,92.7325363l-1.754425,9.8183517
				c-0.1400604,0.7943192-0.8302002,1.3734207-1.6367798,1.3734207h-9.8368988c-1.021286,0-1.7949982-0.9220734-1.6176758-1.9278412
				l0.9384155-5.3223724l0.6789551-3.850563l0.4518127-2.5623932c0.0993347-0.5633392-0.3340302-1.0798035-0.9060669-1.0798035
				h-2.8141479c-2.1386566,0-3.9685974,1.5355148-4.3399658,3.6416855l-2.565155,14.5480576
				c-0.3573456,2.0266647,1.2017365,3.884697,3.2596741,3.884697h13.5760345
				c1.530304,0.0098267,2.7684326,1.2516556,2.7684326,2.784256c0,0.1852722-0.0200806,0.3656464-0.0546265,0.5407867
				c-0.0022125,0.0107269-0.0034027,0.0216141-0.0056152,0.0322952c-0.2591553,1.2382126-1.3412476,2.1680832-2.6474457,2.2050552
				l-15.3915558,0.0065613c-1.8347473,0.0007782-3.404274,1.3183441-3.7228851,3.1252136l-0.5865707,3.3265457
				c-0.0951614,0.5396729,0.3199921,1.0344391,0.8679886,1.0344391h6.558075h13.2123871h4.4849091
				c1.2774353,0,2.4024048-0.6418228,3.0786438-1.6179428c0.2542267-0.3670044,0.4366455-0.783783,0.5470886-1.2299194
				l0.070282-0.3983536l0.5848541-3.3172226l1.2442627-7.0571365l2.508255-14.2245789l1.0940094-6.2046356
				c0.0993347-0.5633392-0.3340302-1.0798035-0.9060669-1.0798035h-2.9060211
				C154.3662262,89.1813354,152.5817261,90.6786957,152.219574,92.7325363z"/>
			<path fill="#FFFFFF" d="M81.8695755,47.5198784H77.241745l0,0H52.2879906
				c-0.6303444,0.0281143-1.2503853,0.0971527-1.8631134,0.1903076c-0.2661171,0.0404472-0.5298004,0.0871239-0.7918549,0.1394272
				c-2.0343819,0.4054794-3.9533157,1.155468-5.6809273,2.2066689c-4.1237755,2.5092354-7.1567841,6.6794205-8.1188278,11.6877327
				c-0.0008125,0.0046082-0.0021667,0.0090103-0.0029793,0.0135498c-0.0157204,0.082653-0.0422783,0.1607704-0.0569115,0.2438316
				v0.0000648c-0.0214081,0.1210709-0.0311623,0.2408524-0.0498619,0.3616486
				c-0.0010834,0.0067062-0.0018959,0.0134125-0.0027122,0.0201225c-0.4029732,2.6151276-0.2024345,5.1646729,0.4869843,7.5291977
				c0.2124634,0.72892,0.4650345,1.4426575,0.7661133,2.1325531c1.4238205,3.2627487,3.8191719,6.031601,6.8405266,7.9198456
				c0.269371,0.1683578,0.541996,0.3316345,0.821125,0.4855576c0.0051498,0.0027847,0.010025,0.0052185,0.014904,0.0079269
				c2.483696,1.3660355,5.3410988,2.157486,8.4169235,2.157486h6.6917496l0.2856331,0.05867
				c2.2972488,0.0147705,4.1592789,1.7796402,4.3676758,4.0258789c0.0127335,0.1365128,0.0409164,0.2683563,0.0409164,0.4081879
				c0,0.2950516-0.0319748,0.5823059-0.0867157,0.8612289c-0.0037994,0.0170746-0.0054245,0.0344162-0.0092163,0.0514221
				c-0.3731651,1.7831039-1.8213768,3.1532669-3.6324539,3.4450607c-0.1918678,0.030899-0.3842773,0.0609741-0.5837326,0.066597
				l-17.4446754,0.0074539h-0.0162582l-6.2027626,0.0015335c-3.4007492,0.0008392-6.311573,2.4397125-6.9077892,5.787796
				l-0.8174,4.5901413c-0.1435089,0.8058777,0.4761696,1.5456619,1.2947273,1.5456619h29.7562256
				c3.0259628-0.1348953,5.8727989-1.0376511,8.3358955-2.5364075c4.1302795-2.5131683,7.1670837-6.6918182,8.1239777-11.7106323
				c0.0151749-0.0794678,0.0406494-0.1546021,0.0547409-0.2344818v-0.0000687
				c0.0205917-0.1164627,0.029808-0.2317047,0.047966-0.3478928c0.4100189-2.6270523,0.210289-5.188324-0.4823761-7.5630798
				c-0.2124634-0.7289124-0.4650345-1.4426575-0.7661133-2.1325455c-0.0143661-0.0326538-0.0284576-0.0651779-0.0430908-0.0977631
				c-2.1433182-4.8308105-7.0743942-7.8220825-12.3593979-7.8220825h-9.1472626
				c-0.0189705,0-0.0357742-0.0052872-0.0547409-0.0054932c-0.5739746-0.0052795-1.1173248-0.1169281-1.6419792-0.2730942
				c-1.3433342-0.4001999-2.4994125-1.2348022-3.2625427-2.3723831c-0.6360321-0.9476089-1.0070267-2.0876999-1.0070267-3.3153229
				v-0.0000076c0-3.2950821,2.671196-5.9662819,5.9662819-5.9662819h8.8356209h7.0559731h0.0149078h6.2111893
				c3.4058228,0,6.3200531-2.4452591,6.9115677-5.799324l0.7143326-4.0505524
				C83.4693069,48.3416672,82.7797623,47.5198784,81.8695755,47.5198784z"/>
		</g>
	</g>
	<path fill="#1C2B36" d="M8.2469225,31.0068665"/>
</g>
</svg>
